PathFileType	4	(X/Y/Z)	C:/Users/opensim2020/Desktop/walking_exp_matlab/subject02_walking07_straight_04.trc																																																																																																																																																				
DataRate	CameraRate	NumFrames	NumMarkers	Units	OrigDataRate	OrigDataStartFrame	OrigNumFrames																																																																																																																																																
100	100	7	50	mm	100	2798	207																																																																																																																																																
Frame#	Time	LFHD			RFHD			LBHD			RBHD			C7			T10			CLAV			STRN			RBAK			LSHO			LUPA			LELB			LFRM			LWRA			LWRB			LFIN			RSHO			RUPA			RELB			RFRM			RWRA			RWRB			RFIN			LASI			RASI			LPSI			RPSI			LTHI			LKNE			LTIB			LANK			LHEE			LTOE			RTHI			RKNE			RTIB			RANK			RHEE			RTOE			*39			*40			*41			*42			*43			*44			*45			*46			*47			*48			*49		
		X1	Y1	Z1	X2	Y2	Z2	X3	Y3	Z3	X4	Y4	Z4	X5	Y5	Z5	X6	Y6	Z6	X7	Y7	Z7	X8	Y8	Z8	X9	Y9	Z9	X10	Y10	Z10	X11	Y11	Z11	X12	Y12	Z12	X13	Y13	Z13	X14	Y14	Z14	X15	Y15	Z15	X16	Y16	Z16	X17	Y17	Z17	X18	Y18	Z18	X19	Y19	Z19	X20	Y20	Z20	X21	Y21	Z21	X22	Y22	Z22	X23	Y23	Z23	X24	Y24	Z24	X25	Y25	Z25	X26	Y26	Z26	X27	Y27	Z27	X28	Y28	Z28	X29	Y29	Z29	X30	Y30	Z30	X31	Y31	Z31	X32	Y32	Z32	X33	Y33	Z33	X34	Y34	Z34	X35	Y35	Z35	X36	Y36	Z36	X37	Y37	Z37	X38	Y38	Z38	X39	Y39	Z39	X40	Y40	Z40	X41	Y41	Z41	X42	Y42	Z42	X43	Y43	Z43	X44	Y44	Z44	X45	Y45	Z45	X46	Y46	Z46	X47	Y47	Z47	X48	Y48	Z48	X49	Y49	Z49	X50	Y50	Z50
																																																																																																																																																							
78	0.77	-10.86465	1739.21741	915.76587	-36.27561	1716.0365	1055.66516	-147.96434	1683.84644	882.323	-184.93884	1660.83093	1020.54309	-222.19064	1532.26758	948.55103	-267.38086	1254.8479	952.03149	-80.12083	1468.20361	948.88794	-23.79643	1298.6333	964.77032	-280.76172	1354.93982	1008.04218	-137.34618	1508.76892	776.20117	-87.31207	1319.03992	686.02667	-30.89175	1187.88843	667.74438	49.89281	1080.2981	668.11505	153.81764	1005.0105	721.92609	123.03843	982.28412	680.13568	175.29881	942.13525	685.1474	-159.89561	1501.89587	1140.37439	-201.2762	1312.79333	1221.07568	-189.33243	1167.17493	1242.40222	-160.33475	1050.09546	1265.875	-111.10985	922.93146	1250.4884	-158.23058	920.37982	1281.97156	-121.68366	856.70734	1284.80042	-38.00703	995.95618	828.90454	-47.71028	982.4834	1081.13855	-249.96989	1041.27625	902.99292	-258.65143	1039.31152	1018.55579	-107.90771	682.44592	783.59741	-145.33919	480.77603	816.27435	-205.2569	293.99203	819.87469	-205.29445	71.76012	863.84686	-242.34566	44.51567	914.62366	-48.3134	33.82761	857.01031	-67.78707	686.74805	1171.98865	-17.70648	490.27707	1158.83679	-114.20241	331.6041	1158.38416	-186.11774	152.91	1126.07446	-220.23013	103.94112	1062.75293	-70.82063	55.83176	1175.42896	-116.02148	1815.4342	992.43622	-2845.75879	1034.14258	3357.44287	NaN	NaN	NaN	NaN	NaN	NaN	NaN	NaN	NaN	NaN	NaN	NaN	NaN	NaN	NaN	NaN	NaN	NaN	NaN	NaN	NaN	NaN	NaN	NaN	NaN	NaN	NaN
79	0.78	-1.33805	1738.62317	916.17554	-27.24368	1715.26489	1056.09094	-138.46674	1683.75366	882.5249	-175.99208	1660.46228	1020.21857	-213.41953	1532.08679	948.22839	-259.14783	1254.77649	951.74487	-71.43738	1467.81494	948.79004	-15.48598	1298.08545	964.26251	-273.28772	1354.7821	1007.39368	-128.20192	1509.15601	776.23755	-75.47007	1320.7749	685.3111	-16.8704	1190.73462	666.25977	66.62318	1085.43726	667.47461	172.93903	1013.63245	721.64679	143.40842	989.79504	680.24091	196.80457	951.24438	685.76129	-151.93341	1501.08569	1140.1156	-195.76338	1312.59583	1219.88953	-184.99074	1166.64539	1241.67102	-157.20245	1049.38843	1265.55383	-108.78885	921.99841	1250.24023	-156.20822	919.68396	1281.26331	-120.09067	855.71863	1284.28613	-30.71433	994.94385	828.0224	-39.2728	982.13477	1080.57593	-242.29669	1040.92554	903.44647	-250.49933	1039.32544	1019.00641	-102.46365	681.90759	783.77234	-141.56686	480.48367	816.51306	-203.19821	294.30356	820.13617	-205.0462	71.90247	864.05145	-242.15498	44.7444	914.98199	-48.19965	33.75463	856.93622	-57.28844	687.21796	1171.22192	-4.49554	490.65106	1157.35889	-94.45371	327.87137	1157.99695	-158.57336	145.99472	1126.19824	-191.35237	95.44913	1063.35962	-38.05892	54.52691	1174.17126	-106.53172	1814.91882	992.86255	-2845.14648	1034.09045	3360.27417	NaN	NaN	NaN	NaN	NaN	NaN	NaN	NaN	NaN	NaN	NaN	NaN	NaN	NaN	NaN	NaN	NaN	NaN	NaN	NaN	NaN	NaN	NaN	NaN	NaN	NaN	NaN
80	0.79	7.68354	1738.1499	916.67981	-18.23512	1714.39233	1056.54175	-129.23454	1683.37744	882.74744	-166.87344	1659.95532	1019.82672	-204.39658	1531.87524	948.03723	-250.87456	1254.54456	951.61133	-62.73633	1467.32898	948.85419	-7.17718	1297.46228	963.80957	-264.97305	1354.38464	1006.62415	-119.07841	1509.47766	776.3562	-64.17123	1322.45093	684.52917	-3.12147	1193.44312	664.95856	83.2897	1090.51343	666.73126	192.1368	1022.43616	721.34436	162.56122	997.20605	680.1355	217.18871	960.03296	686.17706	-144.03552	1500.25928	1139.82471	-190.30952	1312.43005	1219.54749	-180.65451	1166.17493	1241.20239	-153.93019	1048.70166	1265.15845	-106.32719	921.0025	1250.01306	-153.94688	918.73163	1280.19116	-118.35641	854.76483	1283.82422	-23.41216	993.94501	827.45105	-30.89634	981.8186	1080.24487	-234.52008	1040.39014	903.84161	-242.40338	1039.03943	1019.34467	-96.80019	681.29773	784.02863	-137.69054	480.15839	816.80121	-200.94978	294.5408	820.33563	-204.73816	72.06145	864.21332	-242.04659	45.02638	915.10297	-48.07081	33.66808	856.89441	-46.99248	687.55542	1170.67322	8.3159	490.83929	1155.93408	-74.63626	324.07837	1157.48877	-130.81796	139.36604	1126.39941	-161.87982	87.37022	1063.93274	-5.67894	53.47983	1173.03455	-97.16023	1814.45227	993.35803	-2845.93555	1034.11499	3357.40991	NaN	NaN	NaN	NaN	NaN	NaN	NaN	NaN	NaN	NaN	NaN	NaN	NaN	NaN	NaN	NaN	NaN	NaN	NaN	NaN	NaN	NaN	NaN	NaN	NaN	NaN	NaN
81	0.8	17.17193	1737.36865	917.35358	-9.20397	1713.49048	1057.15784	-119.9061	1683.08765	882.95459	-157.71872	1659.43396	1020.2594	-195.71777	1531.55371	947.86206	-242.58038	1254.24719	951.57239	-54.01557	1466.71423	948.98035	1.20921	1296.6781	963.56439	-256.94876	1354.09058	1006.64154	-109.93251	1509.57947	776.62915	-53.23444	1324.15601	683.82544	10.36389	1195.99622	663.7652	99.70389	1095.01624	666.28424	210.04918	1030.68896	721.40521	181.74519	1004.28699	680.36206	237.00002	968.74146	686.66895	-135.94414	1499.17212	1139.79065	-184.5172	1312.03564	1218.8114	-176.21109	1165.73389	1240.87085	-150.46049	1048.0116	1264.85754	-103.73481	919.99377	1249.80579	-151.44148	918.07733	1279.92651	-116.3652	853.82056	1283.5199	-15.96268	992.89941	826.85541	-22.55438	981.38721	1080.19348	-226.8042	1039.771	904.27838	-234.40163	1038.48132	1019.62683	-91.18072	680.59314	784.3208	-133.62892	479.76181	817.07849	-198.35902	294.70905	820.41516	-204.44519	72.22425	864.37286	-241.82118	45.2752	915.17145	-47.92963	33.5896	856.80524	-36.79033	687.65985	1170.45239	20.74592	490.78448	1154.37927	-54.90799	320.34558	1157.0979	-103.08175	133.22659	1126.81641	-132.14671	79.81175	1064.46375	26.51418	52.9423	1172.10156	-87.81127	1813.86548	993.87219	-2845.20459	1033.8938	3360.28345	NaN	NaN	NaN	NaN	NaN	NaN	NaN	NaN	NaN	NaN	NaN	NaN	NaN	NaN	NaN	NaN	NaN	NaN	NaN	NaN	NaN	NaN	NaN	NaN	NaN	NaN	NaN
82	0.81	27.30451	1736.4668	918.62177	-0.16862	1712.48267	1057.7406	-110.68299	1682.51111	883.41766	-148.96271	1658.87305	1020.96417	-186.87981	1531.06482	947.79773	-234.23326	1253.81946	951.63843	-45.37856	1465.92627	949.19586	9.66526	1295.86243	963.40161	-248.52005	1353.54688	1006.17035	-100.77756	1509.573	776.95313	-41.9943	1325.62354	683.51215	23.37628	1198.36646	662.77051	115.44724	1099.99194	665.85229	227.38458	1038.88562	721.35718	199.7009	1011.27014	680.4057	256.41504	977.45898	687.32843	-127.99013	1498.24707	1139.74207	-178.59912	1311.6842	1218.4917	-171.4516	1165.04382	1240.22583	-146.90448	1047.24036	1264.50037	-100.85263	918.98743	1249.92493	-149.01967	917.43866	1279.76758	-114.28235	852.87201	1283.31116	-8.33444	991.9101	826.64099	-14.24272	980.91608	1080.28491	-218.9801	1039.02478	904.69232	-226.34389	1037.65723	1019.79077	-85.53401	679.96649	784.55652	-129.46674	479.30295	817.39758	-195.8941	294.8786	820.59735	-204.1156	72.37938	864.521	-241.5079	45.44638	915.58679	-47.79985	33.54101	856.76282	-27.02778	687.4389	1169.77832	32.8081	490.52472	1152.99524	-35.33658	316.65363	1156.88623	-75.35867	127.52696	1127.3689	-102.37974	72.93672	1065.64978	58.37452	52.88191	1171.35168	-78.33175	1813.09265	994.56927	-2845.27197	1033.89612	3360.35376	NaN	NaN	NaN	NaN	NaN	NaN	NaN	NaN	NaN	NaN	NaN	NaN	NaN	NaN	NaN	NaN	NaN	NaN	NaN	NaN	NaN	NaN	NaN	NaN	NaN	NaN	NaN
83	0.82	36.5672	1735.43701	919.31958	8.93529	1711.38672	1058.33801	-101.25484	1681.59473	883.82434	-139.93843	1658.18835	1021.83795	-177.97507	1530.30103	947.85181	-225.8741	1253.23291	951.78583	-36.38636	1465.15283	949.57526	18.24838	1294.88171	963.41205	-240.22595	1352.82983	1005.49414	-91.53796	1509.45093	777.39569	-31.22135	1326.83801	683.11914	36.14368	1200.52905	661.90472	130.63908	1104.41028	665.48547	244.10721	1046.422	721.47894	217.06102	1017.91376	680.65021	274.92065	985.64972	687.87787	-119.89806	1497.14905	1139.84534	-172.4693	1311.17078	1217.91663	-166.58936	1164.52258	1240.06763	-143.0643	1046.57849	1264.44531	-97.96931	917.96014	1249.9458	-146.25757	916.65802	1279.49951	-111.93812	851.78284	1283.52234	-0.54571	990.80286	826.5365	-5.92543	980.39679	1080.51721	-211.22176	1038.1781	905.09705	-218.26816	1036.7002	1019.95209	-79.62354	679.18634	784.92212	-125.16902	478.86264	817.73468	-193.42403	295.05038	820.84686	-203.81139	72.56551	864.69177	-241.18199	45.5849	915.52509	-47.70923	33.48779	856.69159	-17.47566	686.96301	1169.52771	44.4674	489.92825	1151.67053	-15.83163	313.05688	1156.91101	-47.56819	122.39689	1128.1095	-72.92144	66.71239	1066.68481	89.80587	53.24628	1170.72925	-69.14165	1812.11267	995.091	-2845.27173	1033.90186	3360.35327	NaN	NaN	NaN	NaN	NaN	NaN	NaN	NaN	NaN	NaN	NaN	NaN	NaN	NaN	NaN	NaN	NaN	NaN	NaN	NaN	NaN	NaN	NaN	NaN	NaN	NaN	NaN
84	0.83	45.25844	1734.55847	919.61249	17.98862	1710.25134	1059.02869	-91.86635	1680.49927	884.55463	-130.67247	1657.03259	1021.46924	-169.02618	1529.48901	948.02539	-217.44672	1252.62854	951.99731	-27.60733	1464.17773	949.99036	26.75973	1293.80713	963.54718	-231.73018	1351.98315	1005.22504	-82.35067	1509.18347	777.9823	-20.31875	1327.86499	683.11707	48.60153	1202.50745	661.22736	145.49959	1108.35876	665.2157	260.10333	1053.79736	721.6651	234.06795	1024.37549	680.89423	292.29773	993.50928	688.3526	-111.64665	1495.88672	1140.0863	-166.08502	1310.77576	1217.94775	-161.47937	1163.93774	1239.91345	-139.04103	1045.72852	1264.35083	-94.71523	916.83698	1250.21204	-143.26506	915.85028	1279.2959	-109.45656	850.77509	1283.41797	7.39644	989.89697	826.73676	2.42234	979.82355	1080.86731	-203.25566	1037.21045	905.48938	-210.17596	1035.58777	1020.11584	-73.82247	678.40552	785.18652	-121.00259	478.41461	818.10938	-191.00204	295.26974	820.98651	-203.4897	72.78912	864.86823	-241.10544	45.90652	915.69934	-47.58146	33.4394	856.60938	-8.19077	686.18939	1169.34045	55.75933	489.10736	1150.38037	3.56769	309.61295	1157.02661	-19.97303	117.65324	1128.85364	-43.33593	61.13904	1067.83057	120.71	54.18219	1170.1626	-59.67505	1811.2196	995.88599	NaN	NaN	NaN	NaN	NaN	NaN	NaN	NaN	NaN	NaN	NaN	NaN	NaN	NaN	NaN	NaN	NaN	NaN	NaN	NaN	NaN	NaN	NaN	NaN	NaN	NaN	NaN	NaN	NaN	NaN
